<svg id="Layer_1" data-name="Layer 1" xmlns="http://www.w3.org/2000/svg" viewBox="0 0 703.85 495.81"><defs><style>.cls-1,.cls-2{fill:none;stroke:#fff;stroke-miterlimit:10;}.cls-1{stroke-width:25px;}.cls-2{stroke-width:21px;}.cls-3{fill:#fff;}</style></defs><title>logo-vector</title><polygon class="cls-1" points="280.03 25 21.65 472.53 538.41 472.53 280.03 25"/><polygon class="cls-2" points="693.25 67.19 692.55 33.67 279.33 446.89 65.22 232.78 65.73 268.07 278.62 480.96 279.33 480.25 279.76 480.69 693.25 67.19"/><polygon class="cls-2" points="415.78 401.35 385.24 400.64 631.38 154.5 661.93 155.21 415.78 401.35"/><polygon class="cls-2" points="390.42 313.33 355.41 314.12 597.07 72.45 632.09 71.67 390.42 313.33"/><polygon class="cls-2" points="371.03 273.06 371.82 241.02 491.16 121.68 490.37 153.71 371.03 273.06"/><polygon class="cls-2" points="457.55 419.25 458.34 387.21 577.68 267.87 576.89 299.91 457.55 419.25"/><polygon class="cls-3" points="693.25 67.19 692.55 33.67 279.33 446.89 65.22 232.78 65.73 268.07 278.62 480.96 279.33 480.25 279.76 480.69 693.25 67.19"/><polygon class="cls-3" points="415.78 401.35 385.24 400.64 631.38 154.5 661.93 155.21 415.78 401.35"/><polygon class="cls-3" points="390.42 313.33 355.41 314.12 597.07 72.45 632.09 71.67 390.42 313.33"/><polygon class="cls-3" points="371.03 273.06 371.82 241.02 491.16 121.68 490.37 153.71 371.03 273.06"/><polygon class="cls-3" points="457.55 419.25 458.34 387.21 577.68 267.87 576.89 299.91 457.55 419.25"/><line class="cls-1" x1="190.53" y1="472.53" x2="360.59" y2="472.53"/></svg>